<?xml version="1.0" encoding="UTF-8"?>
<svg id="Ebene_2" xmlns="http://www.w3.org/2000/svg" viewBox="0 0 182.01 179.76">
    <defs>
        <style>.cls-1{fill:none;}.cls-2{fill:#ff8250;}</style>
    </defs>
    <g id="Ebene_4">
        <rect class="cls-1" width="182.01" height="179.76"/>
        <path class="cls-2"
              d="M143.9,143.96c-8.43,0-16.19-4.61-20.21-12.02l-7.85-11.17c-1.84,.81-3.84,1.23-5.85,1.23-7.64,0-13.98-5.91-14.54-13.53h-8.88c-.56,7.62-6.9,13.52-14.54,13.53-2.02,0-4.01-.42-5.85-1.23l-7.85,11.17c-6.06,11.16-20.02,15.3-31.18,9.23-7.41-4.02-12.02-11.78-12.02-20.21,0-.68,.03-1.37,.1-2.08,0-.07,0-.14,.02-.2,.01-.12,.03-.25,.04-.37v-.1s5-41.7,5-41.7c.01-.09,.03-.18,.04-.27,2.52-18.3,19.4-31.1,37.71-28.58,6.55,.9,12.68,3.72,17.63,8.1h30.71c13.83-12.26,34.97-10.98,47.23,2.85,4.38,4.95,7.2,11.08,8.1,17.63,.02,.09,.03,.18,.04,.27l5.05,42.18s0,.06,0,.09c.07,.74,.11,1.48,.11,2.19-.01,12.69-10.3,22.98-23,22.99Zm-27.17-30.14c.98,0,1.89,.48,2.45,1.27l9.52,13.54c.07,.1,.13,.21,.19,.31,4.41,8.29,14.7,11.43,22.99,7.02,5.55-2.95,9.01-8.72,9.01-15,0-.53-.03-1.08-.08-1.64v-.07s-5.01-41.81-5.01-41.81c-.01-.07-.02-.13-.03-.2-1.96-15.04-15.74-25.64-30.77-23.68-5.79,.75-11.18,3.33-15.4,7.36-.56,.53-1.3,.83-2.07,.83h-33.04c-.77,0-1.51-.3-2.07-.83-10.97-10.47-28.35-10.06-38.82,.92-4.03,4.22-6.6,9.62-7.36,15.4,0,.07-.02,.14-.03,.2l-5,41.81s0,.05,0,.07c-.05,.56-.08,1.11-.08,1.64,0,9.39,7.61,17,17,16.99,6.28,0,12.05-3.47,15-9.01,.06-.11,.12-.21,.19-.31l9.52-13.54c.95-1.36,2.82-1.68,4.18-.73,0,0,.02,.01,.02,.02,3.84,2.77,9.2,1.89,11.96-1.95,1.05-1.46,1.62-3.22,1.61-5.02,0-.48-.05-.97-.13-1.45-.28-1.63,.82-3.18,2.46-3.46,.17-.03,.33-.04,.5-.04h15.16c1.66,0,3,1.34,3,3,0,.17-.01,.34-.04,.5-.83,4.63,2.25,9.06,6.88,9.89,.52,.09,1.04,.14,1.56,.13,1.79,0,3.54-.56,4.99-1.62,.51-.37,1.12-.56,1.75-.56h0Z"/>
        <path class="cls-2"
              d="M63.14,75.1h-5.38v-5.17c-.03-2.35-1.74-4.34-4.06-4.72-2.49-.25-4.72,1.57-4.97,4.06-.01,.15-.02,.29-.02,.44v5.38h-5.38c-2.5,0-4.52,2.03-4.53,4.53h0c0,2.5,2.03,4.52,4.53,4.53h5.38v5.17c.03,2.35,1.74,4.34,4.06,4.72,2.49,.25,4.72-1.57,4.97-4.06,.01-.15,.02-.29,.02-.44v-5.38h5.38c2.5,0,4.52-2.03,4.53-4.53h0c0-2.5-2.03-4.52-4.53-4.53Z"/>
        <circle class="cls-2" cx="141.59" cy="79" r="4.96"/>
        <circle class="cls-2" cx="121.4" cy="79" r="4.96"/>
        <circle class="cls-2" cx="131.5" cy="89.1" r="4.96"/>
        <circle class="cls-2" cx="131.32" cy="69.08" r="4.96"/>
        <circle class="cls-2" cx="72.02" cy="107.42" r="6.45"/>
        <circle class="cls-2" cx="109.99" cy="107.42" r="6.45"/>
    </g>
</svg>