<?xml version="1.0" encoding="UTF-8"?>
<svg id="Ebene_2" xmlns="http://www.w3.org/2000/svg" viewBox="0 0 182.01 179.76">
    <defs>
        <style>.cls-1{fill:none;}.cls-2{fill:#e60012;}</style>
    </defs>
    <g id="Ebene_3">
        <path class="cls-2"
              d="M103.71,162.46h21.76c19.98,0,36.18-16.21,36.18-36.18V57.46c0-19.98-16.21-36.18-36.18-36.18h-21.87c-.55,0-.89,.44-.89,.89V161.46c-.11,.55,.33,1,1,1m26.86-77.81c7.88,0,14.32,6.44,14.32,14.32s-6.44,14.32-14.32,14.32-14.32-6.44-14.32-14.32c0-7.99,6.44-14.32,14.32-14.32M42.33,63.56c0,7.33,5.99,13.32,13.32,13.32s13.32-5.99,13.32-13.32-5.99-13.32-13.32-13.32-13.32,5.99-13.32,13.32M87.51,21.16h-30.97c-19.98,0-36.18,16.21-36.18,36.3V126.27c0,19.98,16.21,36.18,36.18,36.18h30.86c.55,0,1-.44,1-1V22.27c.11-.67-.33-1.11-.89-1.11m-10.43,129.98h-20.53c-6.66,0-12.88-2.55-17.54-7.33-4.66-4.66-7.33-10.88-7.33-17.54V57.46c0-6.66,2.55-12.88,7.33-17.54,4.66-4.66,10.88-7.33,17.54-7.33h20.53v118.54Z"/>
        <rect class="cls-1" width="182.01" height="179.76"/>
    </g>
</svg>