<?xml version="1.0" encoding="UTF-8"?><svg id="Ebene_2" xmlns="http://www.w3.org/2000/svg" viewBox="0 0 182.01 179.76"><defs><style>.cls-1{fill:#006fcd;}.cls-2{fill:none;}</style></defs><g id="Ebene_3"><path class="cls-1" d="M142.12,31.91L76.85,9.11c-.42-.15-.87-.2-1.31-.15l-13.67,1.49c-1.4,.16-2.51,1.27-2.65,2.68l-3.24-1.78c-.53-.28-1.13-.4-1.73-.34v-.02s-13.67,1.3-13.67,1.3c-1.54,.15-2.72,1.44-2.71,2.99V165.71c0,1.66,1.34,3,3,3h100.25c1.66,0,3-1.34,3-3h0V34.74c0-1.28-.81-2.41-2.01-2.83Zm-3.99,53.23l-59.27-12.25V16.16l59.27,20.71v48.27ZM72.86,15.28v57.06h-7.67V16.12l7.67-.83Zm-13.67,4.67v53.47l-1.65-.42V19.04l1.65,.91Zm-7.65-2.68v55.07h-7.66V18l7.66-.73Zm-7.66,61.07h7.66v84.37h-7.66V78.34Zm13.66,84.37V79.19l1.65,.42v83.11h-1.65Zm7.65-84.37h7.66v84.37h-7.67V78.34Zm13.67,84.37V79.02l59.27,12.25v71.44h-59.27Z"/><rect class="cls-2" width="182.01" height="179.76"/></g></svg>