<?xml version="1.0" encoding="UTF-8"?>
<svg id="Ebene_2" xmlns="http://www.w3.org/2000/svg" viewBox="0 0 182.01 179.76">
    <defs>
        <style>.cls-1{fill:#006fcd;}.cls-2{fill:none;}</style>
    </defs>
    <g id="Livello_1">
        <path class="cls-1"
              d="M133.44,29.61L79.5,10.18c-1.54-.55-3.23,.24-3.78,1.78-.06,.15-.1,.31-.13,.47-.27,1.45-.53,2.9-.78,4.34l-24.62-5.31c-1.6-.34-3.17,.67-3.51,2.27-.07,.33-.09,.67-.04,1.01,.04,.31,4.1,31.99,2.73,86.6-1.36,54.17-1.02,58.95-.97,59.32,.18,1.49,1.44,2.61,2.94,2.61h11.65l1.22,.03-.94,5.36c-.11,.63,.31,1.22,.93,1.33,.07,.01,.13,.02,.2,.02h51.36c.64,0,1.15-.52,1.15-1.15,0-.08,0-.15-.02-.23l-.78-3.9,11.63,.32c4.23,0,7.65-3.43,7.66-7.66V32.39c0-1.25-.78-2.36-1.95-2.78ZM55.28,101.48c1.09-43.8-1.28-73.05-2.32-83.38l8.41,1.81c-.2,.16-.4,.32-.59,.5-2.35,2.21-3.64,5.32-3.55,8.54,.55,19.52,1.25,61.98-.26,128.39h-2.73c-.01-4.97,.11-18.72,1.04-55.87Zm74.21,55.91c0,.94-.73,1.71-1.66,1.75l-61.76-1.7c1.71-47.11,6.62-94.06,14.72-140.5l48.7,17.54v122.92Z"/>
    </g>
    <g id="Ebene_4">
        <rect class="cls-2" width="182.01" height="179.76"/>
    </g>
</svg>