<?xml version="1.0" standalone="no"?>
<!DOCTYPE svg PUBLIC "-//W3C//DTD SVG 20010904//EN"
 "http://www.w3.org/TR/2001/REC-SVG-20010904/DTD/svg10.dtd">
<svg version="1.0" xmlns="http://www.w3.org/2000/svg"
 width="64.000000pt" height="64.000000pt" viewBox="0 0 64.000000 64.000000"
 preserveAspectRatio="xMidYMid meet">

<g transform="translate(0.000000,64.000000) scale(0.100000,-0.100000)"
fill="#000000" stroke="none">
<path d="M219 576 c-12 -14 -39 -32 -60 -40 -21 -9 -43 -24 -48 -35 -7 -12
-11 -93 -11 -200 0 -208 -3 -202 109 -236 l61 -18 25 23 25 23 24 -22 25 -23
68 22 c104 34 103 32 103 237 0 103 -4 182 -11 194 -5 11 -27 26 -48 35 -21 8
-48 26 -60 40 -19 22 -28 24 -101 24 -73 0 -82 -2 -101 -24z m71 -73 c0 -20
-14 -16 -39 11 -31 33 -17 55 15 25 13 -12 24 -28 24 -36z m42 45 c-9 -9 -15
-9 -24 0 -9 9 -7 12 12 12 19 0 21 -3 12 -12z m58 -33 c-25 -27 -40 -32 -40
-13 0 21 43 59 54 48 6 -6 2 -18 -14 -35z m-148 -32 c37 -36 38 -36 58 -18 19
18 21 18 40 0 20 -18 21 -18 59 19 36 35 39 36 67 24 16 -7 32 -17 36 -23 4
-5 8 -85 8 -176 0 -128 -3 -169 -14 -178 -7 -6 -38 -20 -69 -30 -85 -30 -87
-25 -87 188 0 159 -1 172 -17 169 -16 -3 -18 -21 -21 -174 -2 -151 -5 -173
-21 -188 -17 -15 -22 -15 -82 6 l-64 23 -3 165 c-1 91 0 174 2 185 4 17 34 37
66 44 2 1 21 -16 42 -36z"/>
<path d="M170 367 c0 -37 4 -46 25 -55 19 -9 31 -9 50 0 21 9 25 18 25 55 l0
43 -50 0 -50 0 0 -43z"/>
<path d="M370 367 c0 -37 4 -46 25 -55 19 -9 31 -9 50 0 21 9 25 18 25 55 l0
43 -50 0 -50 0 0 -43z"/>
</g>
</svg>
