<?xml version="1.0" encoding="UTF-8"?><svg id="Ebene_2" xmlns="http://www.w3.org/2000/svg" viewBox="0 0 182.01 179.76"><defs><style>.cls-1{fill:#343434;}.cls-2{fill:none;}.cls-3{fill:#0e7a0d;}</style></defs><g id="Ebene_2-2"><path class="cls-1" d="M122.46,15.89c.08,0,.16,.01,.24,.02-.08-.01-.16-.02-.24-.02Z"/><path class="cls-1" d="M122.24,15.87c-.06,0-.12,.01-.17,.02,.13,0,.26,0,.4,0-.07,0-.15-.02-.22-.02Z"/><path class="cls-1" d="M122.7,15.92c.15,.02,.29,.06,.43,.11-.14-.05-.29-.08-.43-.11Z"/><g><path class="cls-2" d="M126.89,159.93v-52.12c0-1.58,1.28-2.86,2.86-2.86s2.86,1.28,2.86,2.86v52.12h29.34V37.74l-37.16-14.11V159.93h2.1Zm3.82-133.45c1.93,0,3.5,2.76,3.5,6.17s-1.57,6.17-3.5,6.17-3.5-2.76-3.5-6.17,1.57-6.17,3.5-6.17Zm-.96,67.07c1.4,0,2.54,2,2.54,4.48s-1.14,4.48-2.54,4.48-2.54-2-2.54-4.48,1.14-4.48,2.54-4.48h0Z"/><path class="cls-3" d="M130.7,38.82c1.93,0,3.5-2.76,3.5-6.17s-1.57-6.17-3.5-6.17-3.5,2.76-3.5,6.17,1.57,6.17,3.5,6.17Z"/><path class="cls-3" d="M165.81,33.1l-42.87-16.28s-.09-.02-.13-.03c-.14-.05-.28-.08-.43-.11-.08-.01-.15-.02-.23-.02-.13-.01-.26-.01-.39,0-.04,0-.09,0-.13,0l-58.13,6.19c-1.45,.15-2.55,1.38-2.55,2.84v7.05l5.71-.51v-3.97l52.42-5.58V159.93h-22.06v5.71h67.78c1.58,0,2.86-1.28,2.86-2.86h0V35.77c0-1.19-.73-2.25-1.84-2.67Zm-3.87,126.83h-29.34v-52.12c0-1.58-1.28-2.86-2.86-2.86s-2.86,1.28-2.86,2.86v52.12h-2.1V23.63l37.16,14.11v122.19Z"/><ellipse class="cls-3" cx="129.74" cy="98.02" rx="2.54" ry="4.48"/><path class="cls-1" d="M76.41,37.46s-.06-.01-.09-.03c.04,.02,.09,.02,.13,.04l-.04-.02Z"/><path class="cls-1" d="M75.58,37.27c.08,0,.17,.01,.25,.02-.08-.01-.16-.02-.25-.02Z"/><path class="cls-1" d="M76.44,37.47h.01s-.01,0-.01,0Z"/><path class="cls-1" d="M75.34,37.25c-.05,0-.1,.01-.15,.01,.13,0,.26,0,.39,0-.08,0-.16-.02-.24-.02Z"/><path class="cls-1" d="M75.83,37.3c.16,.03,.33,.07,.48,.13-.16-.06-.32-.1-.48-.13Z"/><path class="cls-3" d="M89.55,42.75l-13.1-5.28h-.01s-.09-.03-.13-.05c-.16-.06-.32-.1-.48-.13-.08-.01-.16-.02-.25-.02-.13-.01-.26-.02-.39,0-.04,0-.07,0-.11,0l-8.43,.77-5.71,.52-43.99,4.01c-1.47,.13-2.6,1.37-2.6,2.84v117.38c0,1.58,1.28,2.86,2.86,2.86H91.3V74.86c0-.15,.02-.29,.04-.44v-29.01c0-1.17-.71-2.21-1.79-2.65Zm-17.07,117.17H20.07V48.01l40.87-3.73,5.71-.52,5.83-.53v116.69Zm13.15,0h-.7v-13.11c0-1.58-1.28-2.86-2.86-2.86s-2.86,1.28-2.86,2.86v13.11h-1.02V44.34l7.43,3v112.59Z"/><path class="cls-3" d="M60.94,60.14c-4.02-3.86-9.37-6.04-14.94-6.09-13.31,0-24.09,12.64-24.09,28.24s10.79,28.24,24.09,28.24c5.58-.05,10.92-2.23,14.94-6.09,2.33-2.18,4.26-4.76,5.71-7.6,4.58-9.15,4.58-19.93,0-29.08-1.45-2.85-3.38-5.42-5.71-7.6Z"/><path class="cls-3" d="M80.81,53.75c1.2,0,2.18-1.72,2.18-3.83s-.97-3.83-2.18-3.83-2.18,1.72-2.18,3.83,.97,3.83,2.18,3.83Z"/><ellipse class="cls-3" cx="82.15" cy="138.01" rx="2.54" ry="4.48"/></g></g><g id="Ebene_4"><rect class="cls-2" width="182.01" height="179.76"/></g></svg>