<?xml version="1.0" encoding="UTF-8"?><svg id="Ebene_2" xmlns="http://www.w3.org/2000/svg" viewBox="0 0 182.01 179.76"><defs><style>.cls-1{fill:none;}.cls-2{fill:#0e7a0d;}</style></defs><g id="Ebene_4"><path class="cls-2" d="M69.09,80c1.29,0,2.34-1.05,2.34-2.34h0V25.85c0-1.29-1.05-2.34-2.34-2.34s-2.34,1.05-2.34,2.34v51.81c0,1.29,1.05,2.34,2.34,2.34h0Z"/><circle class="cls-2" cx="69.09" cy="147.63" r="6.73"/><path class="cls-2" d="M149.17,160.09h-10.02l-3.27-5.5c-.1-.17-.23-.33-.36-.48V30.1c0-1.15-.7-2.18-1.76-2.61L90.9,10.22h-.02s-.03-.02-.03-.02c-.03-.01-.06-.01-.09-.02-.16-.06-.32-.1-.48-.13-.08-.01-.16-.02-.23-.02-.08,0-.16-.02-.25-.02-.05,0-.1,.01-.15,.01-.04,0-.07,0-.11,0l-39.57,3.61c-1.45,.13-2.56,1.35-2.56,2.8l.03,138.72-3.32,4.96h-11.29c-1.55,0-2.81,1.26-2.81,2.81h0v4.26c0,1.55,1.26,2.81,2.81,2.81h116.33c1.55,0,2.81-1.26,2.81-2.81h0v-4.26c0-1.55-1.26-2.81-2.81-2.81h0Zm-56.55-70.64l37.27,7.41v64.09h-37.27V89.45Zm-5.62-6.18l-4.35,.09V16.29l4.35-.4V83.27Zm-9.98,.21l-14.34,.3V18.11l14.34-1.31V83.47Zm9.98,5.42v72.06H53.07V89.59s33.92-.7,33.92-.7Zm42.9,2.23l-37.27-7.41V16.98l37.27,15.02v59.13ZM57.05,18.62V83.88l-3.99,.08V18.99s3.99-.37,3.99-.37Z"/><rect class="cls-1" width="182.01" height="179.76"/></g></svg>